<?xml version="1.0" encoding="UTF-8"?><svg id="Layer_1" xmlns="http://www.w3.org/2000/svg" xmlns:xlink="http://www.w3.org/1999/xlink" viewBox="0 0 260.51 81"><defs><style>.cls-1{fill:none;}.cls-2{clip-path:url(#clippath);}.cls-3{fill:#ececec;}</style><clipPath id="clippath"><rect class="cls-1" width="260.51" height="80.1"/></clipPath></defs><g class="cls-2"><path class="cls-3" d="M0,79.29c2.21-.07,4.4-.66,6.33-1.73,2.85-1.84,4.97-5.43,6.66-9.35C16.73,59.33,36.58,10.07,40.68.04h10.22c4.9,13.62,22.75,66.73,24.63,71.65.72,2.45,2.28,4.58,4.42,6,1.86,1.01,3.94,1.55,6.06,1.62v.81h-45.99v-.81c3.83-.35,11.71-1.2,11.78-4.05,0-.83-.13-1.64-.39-2.43l-6.44-20.75h-23.14l-5.45,15.11c-.96,2.28-1.44,4.68-1.42,7.16.46,4.05,9.3,4.62,13.09,4.97v.81H0v-.83ZM44.35,49.87l-10.09-29.12-11.45,29.12h21.54Z"/><path class="cls-3" d="M73.03,9.22c-.79-2.43-2.25-5.32-4.27-6.59-2.04-1.27-5.6-1.62-7.64-1.73V.04h43.67v.83c-3.81.35-8.3.92-8.3,3.63.24,1.29.53,2.56.9,3.83.66,2.43,11.12,37.3,14.93,48.78l13.03-33.12c-3.17-11.52-5.76-18.81-9.9-21.5-1.93-1.05-4.07-1.6-6.26-1.6V.04h44.44v.83c-3.83.35-9.87.81-9.87,3.63.04,1.09.24,2.19.55,3.24.68,2.19,11.56,36.49,15.5,47.86,3.15-8.1,12.13-34.04,13.46-38.35,1.29-3.59,2.1-7.33,2.43-11.12,0-4.18-7.97-4.75-13.14-5.21V.04h27.39v.83c-2.04.24-3.7.13-6.17,1.51-2.91,1.62-5.17,6.37-6.96,11.47l-23.42,66.27h-10c-3.35-10.55-14.71-46.45-17.05-53.04l-20.97,53.04h-10L73.03,9.22Z"/><path class="cls-3" d="M159.46,79.27c3.09-.13,6.17-.48,9.19-1.05,2.54-.79,4.51-2.82,5.21-5.41L197.31,7.77c.92-2.58,1.03-4.86-1.36-5.74-2.76-.66-5.58-1.07-8.43-1.2L187.83,0h42.86C244.62,0,262.44,6.24,260.36,29.18c-3.33,36.91-21.52,50.92-60.68,50.92h-40.5l.31-.83h-.02ZM236.83,27.69c3.37-16.18-.74-26.38-11.43-26.38-1.25,0-2.5.09-3.72.24l-24.85,69.16c-1.95,5.06-1.44,8.1,3.17,8.1,16.38.02,30.98-22.59,36.82-51.07h0v-.04Z"/></g></svg>